# xmcd
# Track frame offsets:
# 150
# 17015
# 35145
# 58323
# 76075
# 97263
# 120575
# 138768
# 166763
# 191340
# 216845
# 238055
# 255460
#
# Disc length: 3637 seconds
# Revision: 2
# Processed by: cddbd v1.5.1PL0 Copyright (c) Steve Scherf et al.
# Submitted via: VisiTrax 2.9.9.209 - For more info visit www.synapsa.com
#
DISCID=ad0e330d
DTITLE=Michael Hill's Blues Mob - Bloodlines
DYEAR=1994
DGENRE=Blues
TTITLE0=Can't Recall A Time
TTITLE1=Why We Play The Blues
TTITLE2=Promises You Can't Keep
TTITLE3=Bluesman At Heart
TTITLE4=Evil In The Air
TTITLE5=Hard Blues For Hard Times
TTITLE6=Righteous Love
TTITLE7=Signifyin' Monkey/ Watch What You Say
TTITLE8=Soldier's Blues
TTITLE9=Wrong Number
TTITLE10=Heading Home
TTITLE11=Ready For The Blues
TTITLE12=Soul Emergency
EXTD=
EXTT0=
EXTT1=
EXTT2=
EXTT3=
EXTT4=
EXTT5=
EXTT6=
EXTT7=
EXTT8=
EXTT9=
EXTT10=
EXTT11=
EXTT12=
PLAYORDER=
